<svg xmlns="http://www.w3.org/2000/svg" width="43" height="43" viewBox="0 0 43 43">
  <g id="Icon_Arrow_Circle_Left" data-name="Icon Arrow Circle Left" transform="translate(-1755 -980)">
    <path id="Path_7" data-name="Path 7" d="M21.5,1a20.506,20.506,0,0,0-7.979,39.389A20.506,20.506,0,0,0,29.479,2.611,20.371,20.371,0,0,0,21.5,1m0-1A21.5,21.5,0,1,1,0,21.5,21.5,21.5,0,0,1,21.5,0Z" transform="translate(1755 980)" fill="#fff"/>
    <path id="Union_1" data-name="Union 1" d="M-1936.928,20.7l-7.925-7.925a.5.5,0,0,1-.146-.354.5.5,0,0,1,.146-.354l7.925-7.925a.5.5,0,0,1,.707,0,.5.5,0,0,1,0,.707l-7.073,7.072h19a.5.5,0,0,1,.5.5.5.5,0,0,1-.5.5h-19L-1936.22,20a.5.5,0,0,1,0,.706.5.5,0,0,1-.354.147A.5.5,0,0,1-1936.928,20.7Z" transform="translate(3710.895 989.074)" fill="#fff"/>
  </g>
</svg>
